<svg xmlns="http://www.w3.org/2000/svg" viewBox="0 0 280 280" fill="none" shape-rendering="auto"><metadata xmlns:rdf="http://www.w3.org/1999/02/22-rdf-syntax-ns#" xmlns:xsi="http://www.w3.org/2001/XMLSchema-instance" xmlns:dc="http://purl.org/dc/elements/1.1/" xmlns:dcterms="http://purl.org/dc/terms/"><rdf:RDF><rdf:Description><dc:title>Avataaars</dc:title><dc:creator>Pablo Stanley</dc:creator><dc:source xsi:type="dcterms:URI">https://avataaars.com/</dc:source><dcterms:license xsi:type="dcterms:URI">https://avataaars.com/</dcterms:license><dc:rights>Remix of „Avataaars” (https://avataaars.com/) by „Pablo Stanley”, licensed under „Free for personal and commercial use” (https://avataaars.com/)</dc:rights></rdf:Description></rdf:RDF></metadata><mask id="viewboxMask"><rect width="280" height="280" rx="0" ry="0" x="0" y="0" fill="#fff" /></mask><g mask="url(#viewboxMask)"><g transform="translate(8)"><path d="M132 36a56 56 0 0 0-56 56v6.17A12 12 0 0 0 66 110v14a12 12 0 0 0 10.3 11.88 56.04 56.04 0 0 0 31.7 44.73v18.4h-4a72 72 0 0 0-72 72v9h200v-9a72 72 0 0 0-72-72h-4v-18.39a56.04 56.04 0 0 0 31.7-44.73A12 12 0 0 0 198 124v-14a12 12 0 0 0-10-11.83V92a56 56 0 0 0-56-56Z" fill="#ae5d29"/><path d="M108 180.61v8a55.79 55.79 0 0 0 24 5.39c8.59 0 16.73-1.93 24-5.39v-8a55.79 55.79 0 0 1-24 5.39 55.79 55.79 0 0 1-24-5.39Z" fill="#000" fill-opacity=".1"/><g transform="translate(0 170)"><path d="M196 38.63V110H68V38.63a71.52 71.52 0 0 1 26-8.94v44.3h76V29.69a71.52 71.52 0 0 1 26 8.94Z" fill="#b1e2ff"/><path d="M86 83a5 5 0 1 1-10 0 5 5 0 0 1 10 0ZM188 83a5 5 0 1 1-10 0 5 5 0 0 1 10 0Z" fill="#F4F4F4"/></g><g transform="translate(78 134)"><path fill-rule="evenodd" clip-rule="evenodd" d="M40.06 27.72C40.7 20.7 46.7 16 54 16c7.34 0 13.36 4.75 13.95 11.85.03.38-.87.67-1.32.45-5.54-2.77-9.75-4.16-12.63-4.16-2.84 0-7 1.36-12.45 4.07-.5.25-1.53-.07-1.5-.49Z" fill="#000" fill-opacity=".7"/></g><g transform="translate(104 122)"><path fill-rule="evenodd" clip-rule="evenodd" d="M16 8c0 4.42 5.37 8 12 8s12-3.58 12-8" fill="#000" fill-opacity=".16"/></g><g transform="translate(76 90)"><path d="M27 16c-4.84 0-9 2.65-10.84 6.45-.54 1.1.39 1.85 1.28 1.12a15.13 15.13 0 0 1 9.8-3.22 6 6 0 1 0 10.7 2.8 2 2 0 0 0-.12-.74l-.15-.38a6 6 0 0 0-1.64-2.48C33.9 17.32 30.5 16 27 16ZM85 16c-4.84 0-9 2.65-10.84 6.45-.54 1.1.39 1.85 1.28 1.12a15.13 15.13 0 0 1 9.8-3.22 6 6 0 1 0 10.7 2.8 2 2 0 0 0-.12-.74l-.15-.38a6 6 0 0 0-1.64-2.48C91.9 17.32 88.5 16 85 16Z" fill="#000" fill-opacity=".6"/></g><g transform="translate(76 82)"><path d="m22.77 1.58.9-.4C28.93-.91 36.88-.03 41.73 2.3c.57.27.18 1.15-.4 1.1-14.92-1.14-24.96 8.15-28.37 14.45-.1.18-.41.2-.49.03-2.3-5.32 4.45-13.98 10.3-16.3ZM87 12.07c5.75.77 14.74 5.8 13.99 11.6-.03.2-.31.26-.44.1-2.49-3.2-21.71-7.87-28.71-6.9-.64.1-1.07-.57-.63-.98 3.75-3.54 10.62-4.52 15.78-3.82Z" fill-rule="evenodd" clip-rule="evenodd" fill="#000" fill-opacity=".6"/></g><g transform="translate(-1)"><path d="M188.32 138.76C227.9 129.26 255 109.87 255 87.5c0-23.5-29.92-43.72-72.8-52.63l-.31-1.43A40 40 0 0 0 142.82 2h-18.64a40 40 0 0 0-39.07 31.44l-.27 1.21C41.41 43.45 11 63.8 11 87.5c0 22.37 27.1 41.76 66.68 51.26-.2-1.28-.36-2.58-.47-3.9A12 12 0 0 1 67 123v-13a12 12 0 0 1 10-11.83V92c0-8 1.68-15.62 4.7-22.51 8.61-15.69 92.73-16.49 102.66.16A55.82 55.82 0 0 1 189 92v6.17A12 12 0 0 1 199 110v13a12 12 0 0 1-10.2 11.87 56.06 56.06 0 0 1-.48 3.9Z" fill="#929598"/><path d="M189 92.74c3.85-3.25 6-6.9 6-10.74 0-6.08-5.38-11.65-14.32-15.98 1.64 1.1 2.9 2.3 3.68 3.63A55.82 55.82 0 0 1 189 92v.74ZM157.26 58.99a144.36 144.36 0 0 0-24.26-2c-8.98 0-17.52.78-25.22 2.17 15.16-2.2 34.11-2.3 49.48-.17ZM84.69 66.33C76.12 70.62 71 76.07 71 82c0 3.85 2.15 7.49 6 10.74V92c0-8 1.68-15.62 4.7-22.51a9.94 9.94 0 0 1 2.99-3.16Z" fill="#000" fill-opacity=".5"/></g><g transform="translate(49 72)"><path fill-rule="evenodd" clip-rule="evenodd" d="M101.43 98.17c-2.52 2.3-5.2 3.32-8.58 2.6-.58-.12-2.95-4.54-8.85-4.54-5.9 0-8.27 4.42-8.85 4.54-3.39.72-6.07-.3-8.58-2.6-4.72-4.31-8.65-10.26-6.3-16.75 1.24-3.38 3.24-7.1 6.88-8.17 3.89-1.15 9.35 0 13.26-.8A8.6 8.6 0 0 0 84 71a8.6 8.6 0 0 0 3.58 1.46c3.92.78 9.38-.36 13.27.79 3.64 1.07 5.64 4.79 6.87 8.17 2.36 6.49-1.57 12.44-6.3 16.75ZM140.08 26c-3.4 8.4-2.1 18.86-2.72 27.68-.52 7.16-2.02 17.9-8.39 22.53-3.25 2.37-9.18 6.35-13.43 5.24-2.93-.76-3.24-9.16-7.09-12.3a22.42 22.42 0 0 0-15.3-4.9c-2.37.11-7.17.09-9.15 1.91-1.98-1.82-6.78-1.8-9.15-1.9a22.42 22.42 0 0 0-15.3 4.89c-3.85 3.14-4.16 11.54-7.1 12.3-4.24 1.1-10.17-2.87-13.42-5.24-6.37-4.62-7.87-15.37-8.39-22.53-.63-8.82.69-19.28-2.72-27.68-1.66 0-.57 16.13-.57 16.13v20.36c.04 15.28 9.59 38.16 30.76 46.9C63.29 111.53 75 115 84 115c8.98.01 20.71-3.13 25.9-5.27 21.16-8.73 30.71-31.95 30.75-47.23V42.13s1.1-16.13-.57-16.13Z" fill="#a55728"/></g><g transform="translate(62 42)"></g></g></g></svg>